{"title":"2012.2009.DVDRip.XviD-Emery","uid":5333902,"size":738577555,"categoryP":"video","categoryS":"movies","magnet":"?xt=urn:btih:774b547989c929c2f9a2812c7a417e54b41a4a81&amp;dn=2012.2009.DVDRip.XviD-Emery&amp;tr=udp%3A%2F%2Ftracker.openbittorrent.com%3A80&amp;tr=udp%3A%2F%2Fopen.demonii.com%3A1337&amp;tr=udp%3A%2F%2Ftracker.coppersurfer.tk%3A6969&amp;tr=udp%3A%2F%2Fexodus.desync.com%3A6969","seeders":1,"leechers":0,"uploader":"Emery2010","files":-1,"time":1265258553,"description":"General\nComplete name                    : 2012.2009.DVDRip.XviD-Emery.avi\nFormat                           : AVI\nFormat/Info                      : Audio Video Interleave\nFile size                        : 704 MiB\nDuration                         : 2h 37mn\nOverall bit rate                 : 624 Kbps\nWriting application              : VirtualDubMod 1.5.10.2 (build 2540/release)\nWriting library                  : VirtualDubMod build 2540/release\n\nVideo\nID                               : 0\nFormat                           : MPEG-4 Visual\nFormat profile                   : AdvancedSimple@L5\nFormat settings, BVOP            : Yes\nFormat settings, QPel            : No\nFormat settings, GMC             : No warppoints\nFormat settings, Matrix          : Default (H.263)\nMuxing mode                      : Packed bitstream\nCodec ID                         : XVID\nCodec ID/Hint                    : XviD\nDuration                         : 2h 37mn\nBit rate                         : 484 Kbps\nWidth                            : 512 pixels\nHeight                           : 224 pixels\nDisplay aspect ratio             : 2.25:1\nFrame rate                       : 29.970 fps\nResolution                       : 24 bits\nColorimetry                      : 4:2:0\nScan type                        : Progressive\nBits/(Pixel*Frame)               : 0.141\nStream size                      : 547 MiB (78%)\nWriting library                  : XviD 1.2.1 (UTC 2008-12-04)\n\nAudio\nID                               : 1\nFormat                           : MPEG Audio\nFormat version                   : Version 1\nFormat profile                   : Layer 3\nFormat settings, Mode            : Joint stereo / MS Stereo\nCodec ID                         : 55\nCodec ID/Hint                    : MP3\nDuration                         : 2h 37mn\nBit rate mode                    : Constant\nBit rate                         : 128 Kbps\nChannel(s)                       : 2 channels\nSampling rate                    : 48.0 KHz\nResolution                       : 16 bits\nStream size                      : 144 MiB (21%)\nAlignment                        : Aligned on interleaves\nInterleave, duration             : 33 ms (1.00 video frame)\nInterleave, preload duration     : 504 ms\n &lt;a href=&quot;\nhttp://www.imdb.com/title/tt1190080/&quot; rel=&quot;nofollow&quot; target=&quot;_NEW&quot;&gt;\nhttp://www.imdb.com/title/tt1190080/&lt;/a&gt;\n\nPLOT\nAn epic adventure about a global cataclysm that\nbrings an end to the world and tells of the heroic struggle of the survivors. ","torrent":{"xt":"urn:btih:774b547989c929c2f9a2812c7a417e54b41a4a81","amp;dn":"2012.2009.DVDRip.XviD-Emery","amp;tr":["udp%3A%2F%2Ftracker.openbittorrent.com%3A80","udp%3A%2F%2Fopen.demonii.com%3A1337","udp%3A%2F%2Ftracker.coppersurfer.tk%3A6969","udp%3A%2F%2Fexodus.desync.com%3A6969"],"infoHash":"774b547989c929c2f9a2812c7a417e54b41a4a81","infoHashBuffer":{"type":"Buffer","data":[119,75,84,121,137,201,41,194,249,162,129,44,122,65,126,84,180,26,74,129]},"announce":[],"urlList":[]}}